<svg width="50" height="50" viewBox="0 0 50 50" fill="none" xmlns="http://www.w3.org/2000/svg">
<path d="M9.46387 38.3769L13.2494 25.4432C12.303 24.8648 10.5995 23.1719 11.3566 21.0268C12.1137 18.8817 15.4576 19.2392 17.0348 19.6861C19.1905 18.1614 25.3945 16.0268 32.9654 19.6861C34.4376 19.0815 37.6184 18.5031 38.5648 21.0268C39.0643 21.8943 39.4323 23.9921 36.9087 25.4432L40.4576 38.3769H9.46387Z" fill="white" stroke="white"/>
<path d="M9.54237 38.3281L8.04395 41.0883L19.085 46.2145H33.5171L41.0881 41.7192L44.1638 38.3281H40.4572H9.54237Z" fill="white" stroke="white"/>
<circle cx="25" cy="25" r="22.5" stroke="white" stroke-width="5"/>
<path d="M17.453 24.6211C17.2399 24.8875 17.0623 25.2605 17.0446 25.4736C16.938 27.1075 17.755 27.9423 18.6252 27.072C19.0159 26.6813 19.0692 26.5037 18.9804 25.7045C18.9271 25.0474 18.785 24.7099 18.5009 24.4791C17.9858 24.0528 17.8793 24.0706 17.453 24.6211Z" fill="black"/>
<path d="M31.6255 24.4968C31.2703 24.781 31.1992 24.9941 31.1992 25.8466C31.1992 26.6991 31.2703 26.9122 31.6255 27.1963C32.1405 27.6226 32.2648 27.6226 32.6911 27.1608C33.1528 26.6635 33.2594 25.7933 32.9397 25.0474C32.549 24.1061 32.2648 23.9818 31.6255 24.4968Z" fill="black"/>
<path d="M23.4202 25.2961C22.4789 25.6335 22.0171 26.0953 22.0882 26.6281C22.1415 27.0365 22.248 27.1076 22.9762 27.1786C23.6866 27.2497 23.8642 27.3562 24.2194 27.889C24.4503 28.2265 24.7877 28.5284 24.9653 28.5639C25.3205 28.6349 25.9599 28.1377 25.9599 27.7825C25.9599 27.445 26.2973 27.2852 27.203 27.1786C27.8779 27.1076 28.02 27.0188 28.0555 26.6813C28.2331 25.4204 25.4093 24.5857 23.4202 25.2961Z" fill="black"/>
</svg>
