<svg width="317" height="317" viewBox="0 0 317 317" fill="none" xmlns="http://www.w3.org/2000/svg">
<path d="M60 243.31L84 161.31C78 157.643 67.2 146.91 72 133.31C76.8 119.71 98 121.977 108 124.81C121.667 115.143 161 101.61 209 124.81C218.333 120.977 238.5 117.31 244.5 133.31C247.667 138.81 250 152.11 234 161.31L256.5 243.31H60Z" fill="white" stroke="white"/>
<path d="M60.5 243L51 260.5L121 293H212.5L260.5 264.5L280 243H256.5H60.5Z" fill="white" stroke="white"/>
<circle cx="158.5" cy="158.5" r="144.5" stroke="white" stroke-width="28"/>
<path d="M110.649 156.098C109.298 157.787 108.172 160.152 108.06 161.503C107.384 171.862 112.564 177.154 118.081 171.637C120.558 169.16 120.896 168.034 120.333 162.967C119.995 158.801 119.094 156.661 117.293 155.197C114.027 152.495 113.352 152.608 110.649 156.098Z" fill="black"/>
<path d="M200.502 155.31C198.25 157.112 197.8 158.463 197.8 163.867C197.8 169.272 198.25 170.623 200.502 172.425C203.768 175.127 204.556 175.127 207.258 172.2C210.186 169.047 210.861 163.53 208.834 158.801C206.357 152.833 204.556 152.045 200.502 155.31Z" fill="black"/>
<path d="M148.482 160.377C142.514 162.516 139.587 165.444 140.037 168.822C140.375 171.412 141.051 171.862 145.667 172.312C150.171 172.763 151.297 173.438 153.549 176.816C155.013 178.956 157.152 180.87 158.278 181.095C160.53 181.545 164.584 178.393 164.584 176.141C164.584 174.001 166.723 172.988 172.466 172.312C176.744 171.862 177.645 171.299 177.87 169.16C178.996 161.165 161.093 155.873 148.482 160.377Z" fill="black"/>
</svg>
